<svg width="481" height="136" viewBox="0 0 481 136" fill="none" xmlns="http://www.w3.org/2000/svg">
<circle cx="60" cy="32" r="31.5" stroke="#E0DEF7"/>
<circle cx="60" cy="32" r="28" fill="#E0DEF7"/>
<g clip-path="url(#clip0_601_2264)">
<path d="M71.6166 26.5094L62.7283 19.6024C61.9483 18.9962 60.9882 18.667 60 18.667C59.0117 18.667 58.0516 18.9962 57.2716 19.6024L48.3816 26.5094C47.8474 26.9245 47.4151 27.456 47.1179 28.0635C46.8207 28.671 46.6663 29.3383 46.6666 30.0145V42.0034C46.6666 42.8866 47.0178 43.7337 47.6429 44.3582C48.2681 44.9828 49.1159 45.3337 50 45.3337H70C70.884 45.3337 71.7319 44.9828 72.357 44.3582C72.9821 43.7337 73.3333 42.8866 73.3333 42.0034V30.0145C73.3333 28.6441 72.7 27.3503 71.6166 26.5094Z" fill="white" stroke="white" stroke-width="2" stroke-linecap="round" stroke-linejoin="round"/>
</g>
<path d="M55 37L65 27" stroke="#7065F0" stroke-width="2" stroke-linecap="round" stroke-linejoin="round"/>
<path d="M55.8333 28.6667C56.2936 28.6667 56.6667 28.2936 56.6667 27.8333C56.6667 27.3731 56.2936 27 55.8333 27C55.3731 27 55 27.3731 55 27.8333C55 28.2936 55.3731 28.6667 55.8333 28.6667Z" fill="#7065F0" stroke="#7065F0" stroke-width="2" stroke-linecap="round" stroke-linejoin="round"/>
<path d="M64.1663 36.9997C64.6266 36.9997 64.9997 36.6266 64.9997 36.1663C64.9997 35.7061 64.6266 35.333 64.1663 35.333C63.7061 35.333 63.333 35.7061 63.333 36.1663C63.333 36.6266 63.7061 36.9997 64.1663 36.9997Z" fill="#7065F0" stroke="#7065F0" stroke-width="2" stroke-linecap="round" stroke-linejoin="round"/>
<rect x="68" y="40" width="24" height="24" rx="12" fill="#7065F0"/>
<path d="M73.6 52.7999C73.6 52.5877 73.6843 52.3842 73.8343 52.2342C73.9843 52.0842 74.1878 51.9999 74.4 51.9999H76C76.2121 51.9999 76.4156 52.0842 76.5657 52.2342C76.7157 52.3842 76.8 52.5877 76.8 52.7999V56.7999C76.8 57.0121 76.7157 57.2156 76.5657 57.3656C76.4156 57.5156 76.2121 57.5999 76 57.5999H74.4C74.1878 57.5999 73.9843 57.5156 73.8343 57.3656C73.6843 57.2156 73.6 57.0121 73.6 56.7999V52.7999ZM78.4 49.5999C78.4 49.3877 78.4843 49.1842 78.6343 49.0342C78.7843 48.8842 78.9878 48.7999 79.2 48.7999H80.8C81.0121 48.7999 81.2156 48.8842 81.3657 49.0342C81.5157 49.1842 81.6 49.3877 81.6 49.5999V56.7999C81.6 57.0121 81.5157 57.2156 81.3657 57.3656C81.2156 57.5156 81.0121 57.5999 80.8 57.5999H79.2C78.9878 57.5999 78.7843 57.5156 78.6343 57.3656C78.4843 57.2156 78.4 57.0121 78.4 56.7999V49.5999ZM83.2 47.1999C83.2 46.9877 83.2843 46.7842 83.4343 46.6342C83.5843 46.4842 83.7878 46.3999 84 46.3999H85.6C85.8121 46.3999 86.0156 46.4842 86.1657 46.6342C86.3157 46.7842 86.4 46.9877 86.4 47.1999V56.7999C86.4 57.0121 86.3157 57.2156 86.1657 57.3656C86.0156 57.5156 85.8121 57.5999 85.6 57.5999H84C83.7878 57.5999 83.5843 57.5156 83.4343 57.3656C83.2843 57.2156 83.2 57.0121 83.2 56.7999V47.1999Z" fill="white"/>
<path d="M1.41788 133H2.59388V129.58H4.57388C5.16588 129.58 5.68588 129.468 6.13388 129.244C6.58188 129.02 6.92988 128.7 7.17788 128.284C7.43388 127.868 7.56188 127.38 7.56188 126.82C7.56188 126.252 7.43388 125.764 7.17788 125.356C6.92988 124.94 6.58188 124.62 6.13388 124.396C5.68588 124.172 5.16588 124.06 4.57388 124.06H1.41788V133ZM2.59388 128.5V125.14H4.60988C5.14588 125.14 5.57388 125.292 5.89388 125.596C6.21388 125.892 6.37388 126.3 6.37388 126.82C6.37388 127.332 6.21388 127.74 5.89388 128.044C5.57388 128.348 5.14588 128.5 4.60988 128.5H2.59388ZM9.02025 133H10.1363V129.148C10.1363 128.628 10.2763 128.228 10.5563 127.948C10.8363 127.66 11.2043 127.516 11.6603 127.516H12.2243V126.46H11.8283C11.4283 126.46 11.0843 126.532 10.7963 126.676C10.5083 126.812 10.2803 127.02 10.1123 127.3V126.532H9.02025V133ZM16.2876 133.144C16.8956 133.144 17.4516 133 17.9556 132.712C18.4596 132.424 18.8596 132.024 19.1556 131.512C19.4596 131 19.6116 130.416 19.6116 129.76C19.6116 129.112 19.4636 128.536 19.1676 128.032C18.8796 127.52 18.4836 127.12 17.9796 126.832C17.4756 126.536 16.9116 126.388 16.2876 126.388C15.6556 126.388 15.0876 126.536 14.5836 126.832C14.0796 127.12 13.6796 127.52 13.3836 128.032C13.0956 128.536 12.9516 129.112 12.9516 129.76C12.9516 130.408 13.0996 130.988 13.3956 131.5C13.6916 132.012 14.0916 132.416 14.5956 132.712C15.0996 133 15.6636 133.144 16.2876 133.144ZM16.2876 132.064C15.8796 132.064 15.5116 131.964 15.1836 131.764C14.8636 131.564 14.6076 131.292 14.4156 130.948C14.2236 130.596 14.1276 130.2 14.1276 129.76C14.1276 129.32 14.2236 128.928 14.4156 128.584C14.6076 128.24 14.8636 127.968 15.1836 127.768C15.5116 127.568 15.8796 127.468 16.2876 127.468C16.6876 127.468 17.0476 127.568 17.3676 127.768C17.6956 127.968 17.9516 128.24 18.1356 128.584C18.3276 128.928 18.4236 129.32 18.4236 129.76C18.4236 130.2 18.3276 130.596 18.1356 130.948C17.9516 131.292 17.6956 131.564 17.3676 131.764C17.0476 131.964 16.6876 132.064 16.2876 132.064ZM21.0671 135.4H22.1831V132.1C22.4311 132.436 22.7471 132.696 23.1311 132.88C23.5231 133.056 23.9511 133.144 24.4151 133.144C25.0311 133.144 25.5791 132.996 26.0591 132.7C26.5471 132.404 26.9311 132.004 27.2111 131.5C27.4911 130.988 27.6311 130.412 27.6311 129.772C27.6311 129.124 27.4911 128.548 27.2111 128.044C26.9311 127.532 26.5511 127.128 26.0711 126.832C25.5911 126.536 25.0431 126.388 24.4271 126.388C23.9391 126.388 23.4991 126.484 23.1071 126.676C22.7231 126.86 22.4071 127.116 22.1591 127.444V126.532H21.0671V135.4ZM24.3311 132.064C23.9311 132.064 23.5671 131.964 23.2391 131.764C22.9111 131.564 22.6511 131.292 22.4591 130.948C22.2751 130.596 22.1831 130.204 22.1831 129.772C22.1831 129.332 22.2751 128.94 22.4591 128.596C22.6511 128.252 22.9111 127.98 23.2391 127.78C23.5671 127.572 23.9311 127.468 24.3311 127.468C24.7391 127.468 25.0991 127.568 25.4111 127.768C25.7311 127.968 25.9831 128.244 26.1671 128.596C26.3511 128.94 26.4431 129.332 26.4431 129.772C26.4431 130.204 26.3511 130.596 26.1671 130.948C25.9831 131.292 25.7311 131.564 25.4111 131.764C25.0991 131.964 24.7391 132.064 24.3311 132.064ZM32.0705 133.144C32.7345 133.144 33.3105 132.988 33.7985 132.676C34.2865 132.364 34.6305 131.984 34.8305 131.536L33.8945 131.056C33.7105 131.368 33.4705 131.624 33.1745 131.824C32.8785 132.024 32.5145 132.124 32.0825 132.124C31.7225 132.124 31.3865 132.044 31.0745 131.884C30.7705 131.716 30.5185 131.48 30.3185 131.176C30.1265 130.872 30.0225 130.512 30.0065 130.096H34.9505C34.9905 129.88 35.0105 129.68 35.0105 129.496C35.0105 128.96 34.8905 128.456 34.6505 127.984C34.4105 127.512 34.0625 127.128 33.6065 126.832C33.1585 126.536 32.6145 126.388 31.9745 126.388C31.3745 126.388 30.8385 126.532 30.3665 126.82C29.8945 127.108 29.5185 127.508 29.2385 128.02C28.9665 128.524 28.8305 129.1 28.8305 129.748C28.8305 130.396 28.9705 130.976 29.2505 131.488C29.5305 132 29.9145 132.404 30.4025 132.7C30.8905 132.996 31.4465 133.144 32.0705 133.144ZM31.9745 127.384C32.3025 127.384 32.6025 127.46 32.8745 127.612C33.1465 127.756 33.3665 127.96 33.5345 128.224C33.7025 128.488 33.7905 128.792 33.7985 129.136H30.0305C30.1105 128.592 30.3345 128.164 30.7025 127.852C31.0705 127.54 31.4945 127.384 31.9745 127.384ZM36.4656 133H37.5816V129.148C37.5816 128.628 37.7216 128.228 38.0016 127.948C38.2816 127.66 38.6496 127.516 39.1056 127.516H39.6696V126.46H39.2736C38.8736 126.46 38.5296 126.532 38.2416 126.676C37.9536 126.812 37.7256 127.02 37.5576 127.3V126.532H36.4656V133ZM43.3475 133.072C43.4355 133.072 43.5435 133.068 43.6715 133.06C43.7995 133.052 43.9155 133.036 44.0195 133.012V132.016C43.9475 132.024 43.8715 132.032 43.7915 132.04C43.7115 132.048 43.6395 132.052 43.5755 132.052C43.1835 132.052 42.9035 131.956 42.7355 131.764C42.5755 131.564 42.4955 131.3 42.4955 130.972V127.6H43.9475V126.532H42.4955V125.044H41.3795V125.572C41.3795 125.868 41.2955 126.104 41.1275 126.28C40.9595 126.448 40.7315 126.532 40.4435 126.532H40.2035V127.6H41.3795V131.008C41.3795 131.664 41.5475 132.172 41.8835 132.532C42.2275 132.892 42.7155 133.072 43.3475 133.072ZM45.8253 135.64C46.2493 135.64 46.6093 135.556 46.9053 135.388C47.2093 135.22 47.4653 134.992 47.6733 134.704C47.8893 134.424 48.0653 134.112 48.2013 133.768L51.1173 126.532H49.8813L47.9253 131.584L45.9573 126.532H44.7453L47.3133 133.012L47.1213 133.48C46.9453 133.88 46.7573 134.164 46.5573 134.332C46.3653 134.5 46.0813 134.584 45.7053 134.584C45.5773 134.584 45.4453 134.572 45.3093 134.548C45.1813 134.532 45.0733 134.516 44.9853 134.5V135.496C45.1133 135.552 45.2493 135.588 45.3933 135.604C45.5373 135.628 45.6813 135.64 45.8253 135.64ZM54.3163 133H55.4923V129.58H57.4603L59.3923 133H60.7603L58.6843 129.376C59.2283 129.192 59.6603 128.88 59.9803 128.44C60.3003 127.992 60.4603 127.452 60.4603 126.82C60.4603 126.252 60.3323 125.764 60.0763 125.356C59.8283 124.94 59.4803 124.62 59.0323 124.396C58.5843 124.172 58.0643 124.06 57.4723 124.06H54.3163V133ZM55.4923 128.5V125.14H57.5083C58.0363 125.14 58.4603 125.292 58.7803 125.596C59.1083 125.892 59.2723 126.3 59.2723 126.82C59.2723 127.332 59.1083 127.74 58.7803 128.044C58.4603 128.348 58.0363 128.5 57.5083 128.5H55.4923ZM64.5783 133.144C65.2423 133.144 65.8183 132.988 66.3063 132.676C66.7943 132.364 67.1383 131.984 67.3383 131.536L66.4023 131.056C66.2183 131.368 65.9783 131.624 65.6823 131.824C65.3863 132.024 65.0223 132.124 64.5903 132.124C64.2303 132.124 63.8943 132.044 63.5823 131.884C63.2783 131.716 63.0263 131.48 62.8263 131.176C62.6343 130.872 62.5303 130.512 62.5143 130.096H67.4583C67.4983 129.88 67.5183 129.68 67.5183 129.496C67.5183 128.96 67.3983 128.456 67.1583 127.984C66.9183 127.512 66.5703 127.128 66.1143 126.832C65.6663 126.536 65.1223 126.388 64.4823 126.388C63.8823 126.388 63.3463 126.532 62.8743 126.82C62.4023 127.108 62.0263 127.508 61.7463 128.02C61.4743 128.524 61.3383 129.1 61.3383 129.748C61.3383 130.396 61.4783 130.976 61.7583 131.488C62.0383 132 62.4223 132.404 62.9103 132.7C63.3983 132.996 63.9543 133.144 64.5783 133.144ZM64.4823 127.384C64.8103 127.384 65.1103 127.46 65.3823 127.612C65.6543 127.756 65.8743 127.96 66.0423 128.224C66.2103 128.488 66.2983 128.792 66.3063 129.136H62.5383C62.6183 128.592 62.8423 128.164 63.2103 127.852C63.5783 127.54 64.0023 127.384 64.4823 127.384ZM71.6014 133.072C71.6894 133.072 71.7974 133.068 71.9254 133.06C72.0534 133.052 72.1694 133.036 72.2734 133.012V132.016C72.2014 132.024 72.1254 132.032 72.0454 132.04C71.9654 132.048 71.8934 132.052 71.8294 132.052C71.4374 132.052 71.1574 131.956 70.9894 131.764C70.8294 131.564 70.7494 131.3 70.7494 130.972V127.6H72.2014V126.532H70.7494V125.044H69.6334V125.572C69.6334 125.868 69.5494 126.104 69.3814 126.28C69.2134 126.448 68.9854 126.532 68.6974 126.532H68.4574V127.6H69.6334V131.008C69.6334 131.664 69.8014 132.172 70.1374 132.532C70.4814 132.892 70.9694 133.072 71.6014 133.072ZM76.0232 133.144C76.4232 133.144 76.7832 133.064 77.1032 132.904C77.4232 132.736 77.6792 132.504 77.8712 132.208V133H78.9632V126.532H77.8352V130.36C77.8352 130.888 77.6872 131.304 77.3912 131.608C77.1032 131.912 76.7312 132.064 76.2752 132.064C75.8112 132.064 75.4352 131.92 75.1472 131.632C74.8592 131.336 74.7152 130.944 74.7152 130.456V126.532H73.5992V130.576C73.5992 131.08 73.7032 131.528 73.9112 131.92C74.1192 132.304 74.4032 132.604 74.7632 132.82C75.1312 133.036 75.5512 133.144 76.0232 133.144ZM80.6921 133H81.8081V129.148C81.8081 128.628 81.9481 128.228 82.2281 127.948C82.5081 127.66 82.8761 127.516 83.3321 127.516H83.8961V126.46H83.5001C83.1001 126.46 82.7561 126.532 82.4681 126.676C82.1801 126.812 81.9521 127.02 81.7841 127.3V126.532H80.6921V133ZM84.8874 133H86.0034V129.172C86.0034 128.644 86.1514 128.228 86.4474 127.924C86.7434 127.62 87.1194 127.468 87.5754 127.468C88.0314 127.468 88.4034 127.62 88.6914 127.924C88.9794 128.22 89.1234 128.636 89.1234 129.172V133H90.2514V128.812C90.2514 128.348 90.1434 127.936 89.9274 127.576C89.7194 127.208 89.4314 126.92 89.0634 126.712C88.7034 126.496 88.2914 126.388 87.8274 126.388C87.4274 126.388 87.0674 126.472 86.7474 126.64C86.4274 126.8 86.1714 127.028 85.9794 127.324V126.532H84.8874V133ZM94.0546 133H95.2306V129.58H97.1986L99.1306 133H100.499L98.4226 129.376C98.9666 129.192 99.3986 128.88 99.7186 128.44C100.039 127.992 100.199 127.452 100.199 126.82C100.199 126.252 100.071 125.764 99.8146 125.356C99.5666 124.94 99.2186 124.62 98.7706 124.396C98.3226 124.172 97.8026 124.06 97.2106 124.06H94.0546V133ZM95.2306 128.5V125.14H97.2466C97.7746 125.14 98.1986 125.292 98.5186 125.596C98.8466 125.892 99.0106 126.3 99.0106 126.82C99.0106 127.332 98.8466 127.74 98.5186 128.044C98.1986 128.348 97.7746 128.5 97.2466 128.5H95.2306ZM103.6 133.144C104.072 133.144 104.496 133.056 104.872 132.88C105.248 132.696 105.552 132.456 105.784 132.16V133H106.876V128.608C106.876 128.168 106.768 127.784 106.552 127.456C106.344 127.12 106.052 126.86 105.676 126.676C105.3 126.484 104.864 126.388 104.368 126.388C103.984 126.388 103.616 126.456 103.264 126.592C102.912 126.728 102.604 126.916 102.34 127.156C102.076 127.388 101.884 127.652 101.764 127.948L102.736 128.452C102.872 128.148 103.08 127.9 103.36 127.708C103.64 127.516 103.968 127.42 104.344 127.42C104.768 127.42 105.108 127.532 105.364 127.756C105.628 127.972 105.76 128.256 105.76 128.608V128.908L103.552 129.268C102.824 129.388 102.288 129.632 101.944 130C101.608 130.36 101.44 130.796 101.44 131.308C101.44 131.852 101.64 132.296 102.04 132.64C102.448 132.976 102.968 133.144 103.6 133.144ZM102.616 131.272C102.616 130.992 102.708 130.756 102.892 130.564C103.084 130.372 103.388 130.24 103.804 130.168L105.76 129.844V130.252C105.76 130.612 105.676 130.94 105.508 131.236C105.34 131.532 105.104 131.768 104.8 131.944C104.496 132.112 104.14 132.196 103.732 132.196C103.412 132.196 103.144 132.108 102.928 131.932C102.72 131.756 102.616 131.536 102.616 131.272ZM111.117 133.072C111.205 133.072 111.313 133.068 111.441 133.06C111.569 133.052 111.685 133.036 111.789 133.012V132.016C111.717 132.024 111.641 132.032 111.561 132.04C111.481 132.048 111.409 132.052 111.345 132.052C110.953 132.052 110.673 131.956 110.505 131.764C110.345 131.564 110.265 131.3 110.265 130.972V127.6H111.717V126.532H110.265V125.044H109.149V125.572C109.149 125.868 109.065 126.104 108.897 126.28C108.729 126.448 108.501 126.532 108.213 126.532H107.973V127.6H109.149V131.008C109.149 131.664 109.317 132.172 109.653 132.532C109.997 132.892 110.485 133.072 111.117 133.072ZM116.047 133.144C116.711 133.144 117.287 132.988 117.775 132.676C118.263 132.364 118.607 131.984 118.807 131.536L117.871 131.056C117.687 131.368 117.447 131.624 117.151 131.824C116.855 132.024 116.491 132.124 116.059 132.124C115.699 132.124 115.363 132.044 115.051 131.884C114.747 131.716 114.495 131.48 114.295 131.176C114.103 130.872 113.999 130.512 113.983 130.096H118.927C118.967 129.88 118.987 129.68 118.987 129.496C118.987 128.96 118.867 128.456 118.627 127.984C118.387 127.512 118.039 127.128 117.583 126.832C117.135 126.536 116.591 126.388 115.951 126.388C115.351 126.388 114.815 126.532 114.343 126.82C113.871 127.108 113.495 127.508 113.215 128.02C112.943 128.524 112.807 129.1 112.807 129.748C112.807 130.396 112.947 130.976 113.227 131.488C113.507 132 113.891 132.404 114.379 132.7C114.867 132.996 115.423 133.144 116.047 133.144ZM115.951 127.384C116.279 127.384 116.579 127.46 116.851 127.612C117.123 127.756 117.343 127.96 117.511 128.224C117.679 128.488 117.767 128.792 117.775 129.136H114.007C114.087 128.592 114.311 128.164 114.679 127.852C115.047 127.54 115.471 127.384 115.951 127.384Z" fill="#6C727F"/>
<path d="M31.2091 108H34.8091L42.0811 92.856V90.096H30.2251V92.856H38.6491L31.2091 108ZM44.0759 108H47.2439V104.64H44.0759V108ZM59.0262 108H62.2422V104.064H64.8582V101.328H62.2422V90.12H58.8342L50.8182 101.328V104.064H59.0262V108ZM59.0262 101.328H54.0342L59.0262 94.152V101.328ZM71.8973 99.192C72.7773 99.192 73.5693 98.984 74.2733 98.568C74.9773 98.136 75.5373 97.568 75.9533 96.864C76.3693 96.16 76.5773 95.376 76.5773 94.512C76.5773 93.648 76.3693 92.864 75.9533 92.16C75.5373 91.44 74.9773 90.872 74.2733 90.456C73.5693 90.04 72.7773 89.832 71.8973 89.832C71.0173 89.832 70.2173 90.04 69.4973 90.456C68.7773 90.872 68.2093 91.44 67.7933 92.16C67.3773 92.864 67.1693 93.648 67.1693 94.512C67.1693 95.376 67.3773 96.16 67.7933 96.864C68.2093 97.568 68.7773 98.136 69.4973 98.568C70.2173 98.984 71.0173 99.192 71.8973 99.192ZM69.0893 108H72.4493L86.9453 90.12H83.5853L69.0893 108ZM71.8973 96.768C71.2093 96.768 70.6653 96.536 70.2653 96.072C69.8813 95.608 69.6893 95.088 69.6893 94.512C69.6893 93.936 69.8813 93.416 70.2653 92.952C70.6653 92.472 71.2093 92.232 71.8973 92.232C72.5853 92.232 73.1133 92.472 73.4813 92.952C73.8653 93.416 74.0573 93.936 74.0573 94.512C74.0573 95.088 73.8653 95.608 73.4813 96.072C73.1133 96.536 72.5853 96.768 71.8973 96.768ZM84.0653 108.288C84.9453 108.288 85.7373 108.08 86.4413 107.664C87.1613 107.232 87.7293 106.664 88.1453 105.96C88.5613 105.256 88.7693 104.472 88.7693 103.608C88.7693 102.744 88.5613 101.96 88.1453 101.256C87.7293 100.536 87.1613 99.968 86.4413 99.552C85.7373 99.136 84.9453 98.928 84.0653 98.928C83.1853 98.928 82.3853 99.136 81.6653 99.552C80.9613 99.968 80.4013 100.536 79.9853 101.256C79.5693 101.96 79.3613 102.744 79.3613 103.608C79.3613 104.472 79.5693 105.256 79.9853 105.96C80.4013 106.664 80.9613 107.232 81.6653 107.664C82.3853 108.08 83.1853 108.288 84.0653 108.288ZM84.0653 105.864C83.3773 105.864 82.8413 105.632 82.4573 105.168C82.0733 104.704 81.8813 104.184 81.8813 103.608C81.8813 103.032 82.0733 102.512 82.4573 102.048C82.8413 101.568 83.3773 101.328 84.0653 101.328C84.7533 101.328 85.2893 101.568 85.6733 102.048C86.0573 102.512 86.2493 103.032 86.2493 103.608C86.2493 104.184 86.0573 104.704 85.6733 105.168C85.2893 105.632 84.7533 105.864 84.0653 105.864Z" fill="#000929"/>
<line opacity="0.2" x1="136.75" y1="36" x2="136.75" y2="100" stroke="white" stroke-width="1.5"/>
<circle cx="215" cy="32" r="31.5" stroke="#E0DEF7"/>
<circle cx="215" cy="32" r="28" fill="#E0DEF7"/>
<rect x="216.65" y="25" width="2" height="10" fill="#7065F0"/>
<rect x="205" y="32" width="2" height="10" fill="#7065F0"/>
<rect x="222" y="25" width="2" height="10" fill="#7065F0"/>
<path d="M205.667 26.6667C203.453 26.6667 201.667 28.4534 201.667 30.6667V41.3334C201.667 43.5467 203.453 45.3334 205.667 45.3334H207.667C209.133 45.3334 210.333 44.1334 210.333 42.6667V29.3334C210.333 27.8667 209.133 26.6667 207.667 26.6667H205.667ZM207 38.6667C207 39.2134 206.547 39.6667 206 39.6667C205.453 39.6667 205 39.2134 205 38.6667V33.3334C205 32.7867 205.453 32.3334 206 32.3334C206.547 32.3334 207 32.7867 207 33.3334V38.6667Z" fill="white"/>
<path d="M224.333 18.6667H216.333C214.12 18.6667 212.333 20.4534 212.333 22.6667V41.3334C212.333 43.5467 214.12 45.3334 216.333 45.3334H217C217.373 45.3334 217.667 45.0401 217.667 44.6667V40.0001C217.667 39.2667 218.267 38.6667 219 38.6667H221.667C222.4 38.6667 223 39.2667 223 40.0001V44.6667C223 45.0401 223.293 45.3334 223.667 45.3334H224.333C226.547 45.3334 228.333 43.5467 228.333 41.3334V22.6667C228.333 20.4534 226.547 18.6667 224.333 18.6667ZM218.667 33.3334C218.667 33.8801 218.213 34.3334 217.667 34.3334C217.12 34.3334 216.667 33.8801 216.667 33.3334V26.6667C216.667 26.1201 217.12 25.6667 217.667 25.6667C218.213 25.6667 218.667 26.1201 218.667 26.6667V33.3334ZM224 33.3334C224 33.8801 223.547 34.3334 223 34.3334C222.453 34.3334 222 33.8801 222 33.3334V26.6667C222 26.1201 222.453 25.6667 223 25.6667C223.547 25.6667 224 26.1201 224 26.6667V33.3334Z" fill="white"/>
<rect x="223" y="40" width="24" height="24" rx="12" fill="#7065F0"/>
<path d="M234.667 57.9999C238.165 57.9999 241 55.1644 241 51.6666C241 48.1688 238.165 45.3333 234.667 45.3333C231.169 45.3333 228.333 48.1688 228.333 51.6666C228.333 55.1644 231.169 57.9999 234.667 57.9999Z" stroke="white" stroke-width="2" stroke-linecap="round" stroke-linejoin="round"/>
<path d="M241.667 58.6666L240.333 57.3333" stroke="white" stroke-width="2" stroke-linecap="round" stroke-linejoin="round"/>
<path d="M188.703 108.288C189.951 108.288 191.055 108.024 192.015 107.496C192.991 106.952 193.759 106.224 194.319 105.312C194.879 104.4 195.159 103.368 195.159 102.216C195.159 100.808 194.751 99.64 193.935 98.712C193.135 97.768 192.071 97.192 190.743 96.984L194.415 92.688V90.12H183.447V92.88H190.743L186.111 98.16L186.855 99.72C187.399 99.464 188.007 99.336 188.679 99.336C189.655 99.336 190.431 99.6 191.007 100.128C191.599 100.656 191.895 101.384 191.895 102.312C191.895 103.24 191.599 103.984 191.007 104.544C190.415 105.088 189.647 105.36 188.703 105.36C187.919 105.36 187.223 105.144 186.615 104.712C186.023 104.28 185.583 103.656 185.295 102.84L182.439 103.848C182.663 104.744 183.079 105.528 183.687 106.2C184.311 106.872 185.055 107.392 185.919 107.76C186.799 108.112 187.727 108.288 188.703 108.288ZM198.575 111.744C201.007 111.232 202.223 109.552 202.223 106.704V104.64H199.055V108H200.519C200.327 109.2 199.679 109.936 198.575 110.208V111.744ZM212.025 108.288C213.321 108.288 214.441 108.048 215.385 107.568C216.345 107.072 217.081 106.416 217.593 105.6C218.121 104.768 218.385 103.856 218.385 102.864C218.385 101.872 218.153 101.016 217.689 100.296C217.241 99.56 216.585 98.96 215.721 98.496C216.329 98.096 216.801 97.568 217.137 96.912C217.473 96.24 217.641 95.504 217.641 94.704C217.641 93.76 217.401 92.92 216.921 92.184C216.441 91.448 215.777 90.872 214.929 90.456C214.081 90.04 213.113 89.832 212.025 89.832C210.921 89.832 209.945 90.048 209.097 90.48C208.249 90.896 207.585 91.472 207.105 92.208C206.625 92.928 206.385 93.76 206.385 94.704C206.385 95.488 206.553 96.224 206.889 96.912C207.225 97.6 207.705 98.128 208.329 98.496C206.553 99.424 205.665 100.872 205.665 102.84C205.665 103.832 205.921 104.744 206.433 105.576C206.961 106.408 207.697 107.072 208.641 107.568C209.601 108.048 210.729 108.288 212.025 108.288ZM212.025 97.224C211.321 97.224 210.745 97.008 210.297 96.576C209.865 96.128 209.649 95.568 209.649 94.896C209.649 94.24 209.865 93.696 210.297 93.264C210.745 92.816 211.321 92.592 212.025 92.592C212.729 92.592 213.297 92.816 213.729 93.264C214.161 93.696 214.377 94.24 214.377 94.896C214.377 95.568 214.161 96.128 213.729 96.576C213.297 97.008 212.729 97.224 212.025 97.224ZM212.025 105.528C211.097 105.528 210.353 105.272 209.793 104.76C209.233 104.248 208.953 103.576 208.953 102.744C208.953 101.912 209.233 101.248 209.793 100.752C210.353 100.24 211.097 99.984 212.025 99.984C212.953 99.984 213.697 100.24 214.257 100.752C214.833 101.248 215.121 101.912 215.121 102.744C215.121 103.576 214.833 104.248 214.257 104.76C213.697 105.272 212.953 105.528 212.025 105.528ZM226.493 108.288C227.725 108.288 228.821 108.024 229.781 107.496C230.741 106.952 231.493 106.224 232.037 105.312C232.597 104.384 232.877 103.344 232.877 102.192C232.877 101.056 232.637 100.048 232.157 99.168C231.677 98.272 230.997 97.568 230.117 97.056C229.253 96.544 228.229 96.288 227.045 96.288C225.909 96.288 224.973 96.52 224.237 96.984L224.789 92.88H232.205V90.12H222.461L221.045 100.056L223.709 100.656C223.933 100.144 224.293 99.752 224.789 99.48C225.301 99.208 225.869 99.072 226.493 99.072C227.405 99.072 228.149 99.36 228.725 99.936C229.301 100.512 229.589 101.264 229.589 102.192C229.589 103.12 229.301 103.88 228.725 104.472C228.149 105.064 227.405 105.36 226.493 105.36C225.757 105.36 225.085 105.16 224.477 104.76C223.869 104.344 223.429 103.736 223.157 102.936L220.325 103.944C220.549 104.84 220.965 105.616 221.573 106.272C222.197 106.928 222.933 107.432 223.781 107.784C224.645 108.12 225.549 108.288 226.493 108.288ZM241.139 108.288C242.339 108.288 243.403 108.032 244.331 107.52C245.275 106.992 246.011 106.28 246.539 105.384C247.067 104.472 247.331 103.44 247.331 102.288C247.331 101.2 247.083 100.232 246.587 99.384C246.107 98.536 245.443 97.864 244.595 97.368C243.747 96.872 242.779 96.624 241.691 96.624C241.435 96.624 241.195 96.64 240.971 96.672L246.083 90.12H242.195L237.203 96.6C236.595 97.4 236.123 98.128 235.787 98.784C235.451 99.44 235.219 100.056 235.091 100.632C234.979 101.208 234.923 101.784 234.923 102.36C234.923 103.496 235.187 104.512 235.715 105.408C236.243 106.304 236.971 107.008 237.899 107.52C238.843 108.032 239.923 108.288 241.139 108.288ZM241.139 105.36C240.307 105.36 239.603 105.08 239.027 104.52C238.467 103.944 238.187 103.216 238.187 102.336C238.187 101.44 238.467 100.72 239.027 100.176C239.603 99.616 240.307 99.336 241.139 99.336C241.971 99.336 242.667 99.616 243.227 100.176C243.787 100.72 244.067 101.44 244.067 102.336C244.067 103.216 243.779 103.944 243.203 104.52C242.643 105.08 241.955 105.36 241.139 105.36Z" fill="#000929"/>
<path d="M153.342 133H154.518V129.58H156.498C157.09 129.58 157.61 129.468 158.058 129.244C158.506 129.02 158.854 128.7 159.102 128.284C159.358 127.868 159.486 127.38 159.486 126.82C159.486 126.252 159.358 125.764 159.102 125.356C158.854 124.94 158.506 124.62 158.058 124.396C157.61 124.172 157.09 124.06 156.498 124.06H153.342V133ZM154.518 128.5V125.14H156.534C157.07 125.14 157.498 125.292 157.818 125.596C158.138 125.892 158.298 126.3 158.298 126.82C158.298 127.332 158.138 127.74 157.818 128.044C157.498 128.348 157.07 128.5 156.534 128.5H154.518ZM160.944 133H162.06V129.148C162.06 128.628 162.2 128.228 162.48 127.948C162.76 127.66 163.128 127.516 163.584 127.516H164.148V126.46H163.752C163.352 126.46 163.008 126.532 162.72 126.676C162.432 126.812 162.204 127.02 162.036 127.3V126.532H160.944V133ZM168.211 133.144C168.819 133.144 169.375 133 169.879 132.712C170.383 132.424 170.783 132.024 171.079 131.512C171.383 131 171.535 130.416 171.535 129.76C171.535 129.112 171.387 128.536 171.091 128.032C170.803 127.52 170.407 127.12 169.903 126.832C169.399 126.536 168.835 126.388 168.211 126.388C167.579 126.388 167.011 126.536 166.507 126.832C166.003 127.12 165.603 127.52 165.307 128.032C165.019 128.536 164.875 129.112 164.875 129.76C164.875 130.408 165.023 130.988 165.319 131.5C165.615 132.012 166.015 132.416 166.519 132.712C167.023 133 167.587 133.144 168.211 133.144ZM168.211 132.064C167.803 132.064 167.435 131.964 167.107 131.764C166.787 131.564 166.531 131.292 166.339 130.948C166.147 130.596 166.051 130.2 166.051 129.76C166.051 129.32 166.147 128.928 166.339 128.584C166.531 128.24 166.787 127.968 167.107 127.768C167.435 127.568 167.803 127.468 168.211 127.468C168.611 127.468 168.971 127.568 169.291 127.768C169.619 127.968 169.875 128.24 170.059 128.584C170.251 128.928 170.347 129.32 170.347 129.76C170.347 130.2 170.251 130.596 170.059 130.948C169.875 131.292 169.619 131.564 169.291 131.764C168.971 131.964 168.611 132.064 168.211 132.064ZM172.991 135.4H174.107V132.1C174.355 132.436 174.671 132.696 175.055 132.88C175.447 133.056 175.875 133.144 176.339 133.144C176.955 133.144 177.503 132.996 177.983 132.7C178.471 132.404 178.855 132.004 179.135 131.5C179.415 130.988 179.555 130.412 179.555 129.772C179.555 129.124 179.415 128.548 179.135 128.044C178.855 127.532 178.475 127.128 177.995 126.832C177.515 126.536 176.967 126.388 176.351 126.388C175.863 126.388 175.423 126.484 175.031 126.676C174.647 126.86 174.331 127.116 174.083 127.444V126.532H172.991V135.4ZM176.255 132.064C175.855 132.064 175.491 131.964 175.163 131.764C174.835 131.564 174.575 131.292 174.383 130.948C174.199 130.596 174.107 130.204 174.107 129.772C174.107 129.332 174.199 128.94 174.383 128.596C174.575 128.252 174.835 127.98 175.163 127.78C175.491 127.572 175.855 127.468 176.255 127.468C176.663 127.468 177.023 127.568 177.335 127.768C177.655 127.968 177.907 128.244 178.091 128.596C178.275 128.94 178.367 129.332 178.367 129.772C178.367 130.204 178.275 130.596 178.091 130.948C177.907 131.292 177.655 131.564 177.335 131.764C177.023 131.964 176.663 132.064 176.255 132.064ZM183.994 133.144C184.658 133.144 185.234 132.988 185.722 132.676C186.21 132.364 186.554 131.984 186.754 131.536L185.818 131.056C185.634 131.368 185.394 131.624 185.098 131.824C184.802 132.024 184.438 132.124 184.006 132.124C183.646 132.124 183.31 132.044 182.998 131.884C182.694 131.716 182.442 131.48 182.242 131.176C182.05 130.872 181.946 130.512 181.93 130.096H186.874C186.914 129.88 186.934 129.68 186.934 129.496C186.934 128.96 186.814 128.456 186.574 127.984C186.334 127.512 185.986 127.128 185.53 126.832C185.082 126.536 184.538 126.388 183.898 126.388C183.298 126.388 182.762 126.532 182.29 126.82C181.818 127.108 181.442 127.508 181.162 128.02C180.89 128.524 180.754 129.1 180.754 129.748C180.754 130.396 180.894 130.976 181.174 131.488C181.454 132 181.838 132.404 182.326 132.7C182.814 132.996 183.37 133.144 183.994 133.144ZM183.898 127.384C184.226 127.384 184.526 127.46 184.798 127.612C185.07 127.756 185.29 127.96 185.458 128.224C185.626 128.488 185.714 128.792 185.722 129.136H181.954C182.034 128.592 182.258 128.164 182.626 127.852C182.994 127.54 183.418 127.384 183.898 127.384ZM188.389 133H189.505V129.148C189.505 128.628 189.645 128.228 189.925 127.948C190.205 127.66 190.573 127.516 191.029 127.516H191.593V126.46H191.197C190.797 126.46 190.453 126.532 190.165 126.676C189.877 126.812 189.649 127.02 189.481 127.3V126.532H188.389V133ZM195.271 133.072C195.359 133.072 195.467 133.068 195.595 133.06C195.723 133.052 195.839 133.036 195.943 133.012V132.016C195.871 132.024 195.795 132.032 195.715 132.04C195.635 132.048 195.563 132.052 195.499 132.052C195.107 132.052 194.827 131.956 194.659 131.764C194.499 131.564 194.419 131.3 194.419 130.972V127.6H195.871V126.532H194.419V125.044H193.303V125.572C193.303 125.868 193.219 126.104 193.051 126.28C192.883 126.448 192.655 126.532 192.367 126.532H192.127V127.6H193.303V131.008C193.303 131.664 193.471 132.172 193.807 132.532C194.151 132.892 194.639 133.072 195.271 133.072ZM197.749 135.64C198.173 135.64 198.533 135.556 198.829 135.388C199.133 135.22 199.389 134.992 199.597 134.704C199.813 134.424 199.989 134.112 200.125 133.768L203.041 126.532H201.805L199.849 131.584L197.881 126.532H196.669L199.237 133.012L199.045 133.48C198.869 133.88 198.681 134.164 198.481 134.332C198.289 134.5 198.005 134.584 197.629 134.584C197.501 134.584 197.369 134.572 197.233 134.548C197.105 134.532 196.997 134.516 196.909 134.5V135.496C197.037 135.552 197.173 135.588 197.317 135.604C197.461 135.628 197.605 135.64 197.749 135.64ZM206.108 125.5H207.224V124.06H206.108V125.5ZM206.108 133H207.224V126.532H206.108V133ZM208.956 133H210.072V129.172C210.072 128.644 210.22 128.228 210.516 127.924C210.812 127.62 211.188 127.468 211.644 127.468C212.1 127.468 212.472 127.62 212.76 127.924C213.048 128.22 213.192 128.636 213.192 129.172V133H214.32V128.812C214.32 128.348 214.212 127.936 213.996 127.576C213.788 127.208 213.5 126.92 213.132 126.712C212.772 126.496 212.36 126.388 211.896 126.388C211.496 126.388 211.136 126.472 210.816 126.64C210.496 126.8 210.24 127.028 210.048 127.324V126.532H208.956V133ZM221.195 133.144C221.779 133.144 222.291 133.04 222.731 132.832C223.179 132.616 223.527 132.32 223.775 131.944C224.031 131.568 224.159 131.136 224.159 130.648C224.159 129.48 223.447 128.676 222.023 128.236L220.523 127.792C220.099 127.656 219.783 127.46 219.575 127.204C219.367 126.94 219.263 126.648 219.263 126.328C219.263 125.912 219.411 125.584 219.707 125.344C220.003 125.096 220.391 124.972 220.871 124.972C221.391 124.972 221.843 125.104 222.227 125.368C222.619 125.632 222.907 126.012 223.091 126.508L224.099 126.088C223.963 125.68 223.739 125.312 223.427 124.984C223.123 124.656 222.751 124.396 222.311 124.204C221.879 124.012 221.395 123.916 220.859 123.916C220.323 123.916 219.843 124.024 219.419 124.24C219.003 124.448 218.675 124.74 218.435 125.116C218.203 125.484 218.087 125.912 218.087 126.4C218.087 126.96 218.259 127.456 218.603 127.888C218.947 128.32 219.443 128.636 220.091 128.836L221.735 129.34C222.135 129.46 222.443 129.628 222.659 129.844C222.875 130.06 222.983 130.356 222.983 130.732C222.983 131.148 222.819 131.48 222.491 131.728C222.171 131.968 221.747 132.088 221.219 132.088C220.643 132.088 220.139 131.936 219.707 131.632C219.275 131.32 218.955 130.876 218.747 130.3L217.727 130.72C217.871 131.176 218.107 131.588 218.435 131.956C218.763 132.316 219.163 132.604 219.635 132.82C220.107 133.036 220.627 133.144 221.195 133.144ZM228.725 133.144C229.389 133.144 229.965 132.988 230.453 132.676C230.941 132.364 231.285 131.984 231.485 131.536L230.549 131.056C230.365 131.368 230.125 131.624 229.829 131.824C229.533 132.024 229.169 132.124 228.737 132.124C228.377 132.124 228.041 132.044 227.729 131.884C227.425 131.716 227.173 131.48 226.973 131.176C226.781 130.872 226.677 130.512 226.661 130.096H231.605C231.645 129.88 231.665 129.68 231.665 129.496C231.665 128.96 231.545 128.456 231.305 127.984C231.065 127.512 230.717 127.128 230.261 126.832C229.813 126.536 229.269 126.388 228.629 126.388C228.029 126.388 227.493 126.532 227.021 126.82C226.549 127.108 226.173 127.508 225.893 128.02C225.621 128.524 225.485 129.1 225.485 129.748C225.485 130.396 225.625 130.976 225.905 131.488C226.185 132 226.569 132.404 227.057 132.7C227.545 132.996 228.101 133.144 228.725 133.144ZM228.629 127.384C228.957 127.384 229.257 127.46 229.529 127.612C229.801 127.756 230.021 127.96 230.189 128.224C230.357 128.488 230.445 128.792 230.453 129.136H226.685C226.765 128.592 226.989 128.164 227.357 127.852C227.725 127.54 228.149 127.384 228.629 127.384ZM233.12 133H234.236V123.916H233.12V133ZM235.968 133H237.084V123.916H235.968V133ZM243.373 133.144C243.997 133.144 244.513 133.012 244.921 132.748C245.337 132.484 245.681 132.188 245.953 131.86L247.033 133H248.509L246.589 130.948L248.137 128.584H246.853L245.821 130.12L244.249 128.428C244.401 128.34 244.573 128.224 244.765 128.08C244.957 127.936 245.141 127.768 245.317 127.576C245.501 127.384 245.649 127.16 245.761 126.904C245.881 126.648 245.941 126.36 245.941 126.04C245.941 125.624 245.841 125.26 245.641 124.948C245.441 124.628 245.173 124.376 244.837 124.192C244.509 124.008 244.145 123.916 243.745 123.916C243.345 123.916 242.973 124.008 242.629 124.192C242.293 124.376 242.021 124.632 241.813 124.96C241.613 125.28 241.513 125.656 241.513 126.088C241.513 126.544 241.617 126.952 241.825 127.312C242.041 127.664 242.277 127.98 242.533 128.26C242.405 128.34 242.241 128.452 242.041 128.596C241.849 128.732 241.657 128.904 241.465 129.112C241.273 129.32 241.109 129.568 240.973 129.856C240.845 130.144 240.781 130.476 240.781 130.852C240.781 131.316 240.893 131.72 241.117 132.064C241.341 132.408 241.645 132.676 242.029 132.868C242.421 133.052 242.869 133.144 243.373 133.144ZM242.653 126.04C242.653 125.72 242.757 125.456 242.965 125.248C243.173 125.04 243.433 124.936 243.745 124.936C244.057 124.936 244.317 125.04 244.525 125.248C244.733 125.456 244.837 125.716 244.837 126.028C244.837 126.284 244.769 126.516 244.633 126.724C244.505 126.924 244.341 127.104 244.141 127.264C243.941 127.416 243.737 127.552 243.529 127.672C243.313 127.44 243.113 127.188 242.929 126.916C242.745 126.636 242.653 126.344 242.653 126.04ZM242.005 130.828C242.005 130.508 242.077 130.236 242.221 130.012C242.365 129.78 242.533 129.584 242.725 129.424C242.925 129.264 243.109 129.136 243.277 129.04L245.185 131.056C244.985 131.328 244.745 131.572 244.465 131.788C244.193 131.996 243.841 132.1 243.409 132.1C242.993 132.1 242.653 131.988 242.389 131.764C242.133 131.54 242.005 131.228 242.005 130.828ZM252.142 133H253.318V129.58H255.286L257.218 133H258.586L256.51 129.376C257.054 129.192 257.486 128.88 257.806 128.44C258.126 127.992 258.286 127.452 258.286 126.82C258.286 126.252 258.158 125.764 257.902 125.356C257.654 124.94 257.306 124.62 256.858 124.396C256.41 124.172 255.89 124.06 255.298 124.06H252.142V133ZM253.318 128.5V125.14H255.334C255.862 125.14 256.286 125.292 256.606 125.596C256.934 125.892 257.098 126.3 257.098 126.82C257.098 127.332 256.934 127.74 256.606 128.044C256.286 128.348 255.862 128.5 255.334 128.5H253.318ZM262.404 133.144C263.068 133.144 263.644 132.988 264.132 132.676C264.62 132.364 264.964 131.984 265.164 131.536L264.228 131.056C264.044 131.368 263.804 131.624 263.508 131.824C263.212 132.024 262.848 132.124 262.416 132.124C262.056 132.124 261.72 132.044 261.408 131.884C261.104 131.716 260.852 131.48 260.652 131.176C260.46 130.872 260.356 130.512 260.34 130.096H265.284C265.324 129.88 265.344 129.68 265.344 129.496C265.344 128.96 265.224 128.456 264.984 127.984C264.744 127.512 264.396 127.128 263.94 126.832C263.492 126.536 262.948 126.388 262.308 126.388C261.708 126.388 261.172 126.532 260.7 126.82C260.228 127.108 259.852 127.508 259.572 128.02C259.3 128.524 259.164 129.1 259.164 129.748C259.164 130.396 259.304 130.976 259.584 131.488C259.864 132 260.248 132.404 260.736 132.7C261.224 132.996 261.78 133.144 262.404 133.144ZM262.308 127.384C262.636 127.384 262.936 127.46 263.208 127.612C263.48 127.756 263.7 127.96 263.868 128.224C264.036 128.488 264.124 128.792 264.132 129.136H260.364C260.444 128.592 260.668 128.164 261.036 127.852C261.404 127.54 261.828 127.384 262.308 127.384ZM266.8 133H267.916V129.172C267.916 128.644 268.064 128.228 268.36 127.924C268.656 127.62 269.032 127.468 269.488 127.468C269.944 127.468 270.316 127.62 270.604 127.924C270.892 128.22 271.036 128.636 271.036 129.172V133H272.164V128.812C272.164 128.348 272.056 127.936 271.84 127.576C271.632 127.208 271.344 126.92 270.976 126.712C270.616 126.496 270.204 126.388 269.74 126.388C269.34 126.388 268.98 126.472 268.66 126.64C268.34 126.8 268.084 127.028 267.892 127.324V126.532H266.8V133ZM276.388 133.072C276.476 133.072 276.584 133.068 276.712 133.06C276.84 133.052 276.956 133.036 277.06 133.012V132.016C276.988 132.024 276.912 132.032 276.832 132.04C276.752 132.048 276.68 132.052 276.616 132.052C276.224 132.052 275.944 131.956 275.776 131.764C275.616 131.564 275.536 131.3 275.536 130.972V127.6H276.988V126.532H275.536V125.044H274.42V125.572C274.42 125.868 274.336 126.104 274.168 126.28C274 126.448 273.772 126.532 273.484 126.532H273.244V127.6H274.42V131.008C274.42 131.664 274.588 132.172 274.924 132.532C275.268 132.892 275.756 133.072 276.388 133.072Z" fill="#6C727F"/>
<line opacity="0.2" x1="294.75" y1="36" x2="294.75" y2="100" stroke="white" stroke-width="1.5"/>
<circle cx="395.5" cy="32" r="31.5" stroke="#E0DEF7"/>
<circle cx="395.5" cy="32" r="28" fill="#E0DEF7"/>
<path d="M399.5 45.3334H391.5C384.833 45.3334 382.167 42.6667 382.167 36.0001V28.0001C382.167 21.3334 384.833 18.6667 391.5 18.6667H399.5C406.167 18.6667 408.833 21.3334 408.833 28.0001V36.0001C408.833 42.6667 406.167 45.3334 399.5 45.3334Z" fill="white"/>
<path d="M391.062 35.1064C391.062 36.8264 392.383 38.213 394.023 38.213H397.369C398.796 38.213 399.956 36.9997 399.956 35.5064C399.956 33.8797 399.249 33.3064 398.196 32.933L392.822 31.0664C391.769 30.693 391.062 30.1197 391.062 28.493C391.062 26.9997 392.222 25.7864 393.649 25.7864H396.996C398.636 25.7864 399.956 27.173 399.956 28.893" stroke="#7065F0" stroke-width="2" stroke-linecap="round" stroke-linejoin="round"/>
<path d="M395.5 24V40" stroke="#7065F0" stroke-width="2" stroke-linecap="round" stroke-linejoin="round"/>
<rect x="403.5" y="40" width="24" height="24" rx="12" fill="#7065F0"/>
<g clip-path="url(#clip1_601_2264)">
<path d="M410.833 52.0001L414.167 55.3334L420.833 48.6667" stroke="white" stroke-width="2" stroke-linecap="round" stroke-linejoin="round"/>
</g>
<path d="M361.904 108H373.904V105.24H366.152L370.352 100.824C371.488 99.64 372.32 98.592 372.848 97.68C373.392 96.768 373.664 95.824 373.664 94.848C373.664 93.856 373.416 92.984 372.92 92.232C372.44 91.48 371.76 90.896 370.88 90.48C370.016 90.048 369.008 89.832 367.856 89.832C366.896 89.832 365.984 90.024 365.12 90.408C364.272 90.776 363.552 91.312 362.96 92.016C362.368 92.704 361.976 93.52 361.784 94.464L364.64 95.352C364.896 94.504 365.304 93.864 365.864 93.432C366.424 92.984 367.088 92.76 367.856 92.76C368.592 92.76 369.192 92.976 369.656 93.408C370.136 93.84 370.376 94.432 370.376 95.184C370.376 95.632 370.272 96.072 370.064 96.504C369.856 96.936 369.488 97.456 368.96 98.064C368.432 98.672 367.696 99.472 366.752 100.464L361.904 105.552V108ZM377.353 111.744C379.785 111.232 381.001 109.552 381.001 106.704V104.64H377.833V108H379.297C379.105 109.2 378.457 109.936 377.353 110.208V111.744ZM390.347 108.288C391.579 108.288 392.675 108.024 393.635 107.496C394.595 106.952 395.347 106.224 395.891 105.312C396.451 104.384 396.731 103.344 396.731 102.192C396.731 101.056 396.491 100.048 396.011 99.168C395.531 98.272 394.851 97.568 393.971 97.056C393.107 96.544 392.083 96.288 390.899 96.288C389.763 96.288 388.827 96.52 388.091 96.984L388.643 92.88H396.059V90.12H386.315L384.899 100.056L387.563 100.656C387.787 100.144 388.147 99.752 388.643 99.48C389.155 99.208 389.723 99.072 390.347 99.072C391.259 99.072 392.003 99.36 392.579 99.936C393.155 100.512 393.443 101.264 393.443 102.192C393.443 103.12 393.155 103.88 392.579 104.472C392.003 105.064 391.259 105.36 390.347 105.36C389.611 105.36 388.939 105.16 388.331 104.76C387.723 104.344 387.283 103.736 387.011 102.936L384.179 103.944C384.403 104.84 384.819 105.616 385.427 106.272C386.051 106.928 386.787 107.432 387.635 107.784C388.499 108.12 389.403 108.288 390.347 108.288ZM406.816 108H410.032V104.064H412.648V101.328H410.032V90.12H406.624L398.608 101.328V104.064H406.816V108ZM406.816 101.328H401.824L406.816 94.152V101.328ZM421.704 108.288C423.144 108.288 424.4 107.904 425.472 107.136C426.544 106.352 427.376 105.272 427.968 103.896C428.576 102.504 428.88 100.888 428.88 99.048C428.88 97.208 428.576 95.6 427.968 94.224C427.376 92.832 426.536 91.752 425.448 90.984C424.376 90.216 423.12 89.832 421.68 89.832C420.272 89.832 419.032 90.216 417.96 90.984C416.888 91.752 416.048 92.824 415.44 94.2C414.848 95.576 414.552 97.192 414.552 99.048C414.552 100.888 414.848 102.504 415.44 103.896C416.048 105.288 416.888 106.368 417.96 107.136C419.048 107.904 420.296 108.288 421.704 108.288ZM421.704 105.312C420.488 105.312 419.536 104.752 418.848 103.632C418.16 102.512 417.816 100.984 417.816 99.048C417.816 97.096 418.152 95.568 418.824 94.464C419.512 93.36 420.464 92.808 421.68 92.808C422.912 92.808 423.872 93.368 424.56 94.488C425.264 95.592 425.616 97.112 425.616 99.048C425.616 100.984 425.272 102.512 424.584 103.632C423.896 104.752 422.936 105.312 421.704 105.312Z" fill="#000929"/>
<path d="M311.06 133H313.988C314.892 133 315.68 132.812 316.352 132.436C317.024 132.06 317.544 131.536 317.912 130.864C318.28 130.192 318.464 129.412 318.464 128.524C318.464 127.628 318.28 126.848 317.912 126.184C317.544 125.512 317.024 124.992 316.352 124.624C315.68 124.248 314.892 124.06 313.988 124.06H311.06V133ZM312.236 131.92V125.14H314C314.656 125.14 315.224 125.28 315.704 125.56C316.192 125.832 316.568 126.22 316.832 126.724C317.104 127.228 317.24 127.828 317.24 128.524C317.24 129.212 317.108 129.812 316.844 130.324C316.58 130.836 316.204 131.232 315.716 131.512C315.236 131.784 314.664 131.92 314 131.92H312.236ZM321.625 133.144C322.097 133.144 322.521 133.056 322.897 132.88C323.273 132.696 323.577 132.456 323.809 132.16V133H324.901V128.608C324.901 128.168 324.793 127.784 324.577 127.456C324.369 127.12 324.077 126.86 323.701 126.676C323.325 126.484 322.889 126.388 322.393 126.388C322.009 126.388 321.641 126.456 321.289 126.592C320.937 126.728 320.629 126.916 320.365 127.156C320.101 127.388 319.909 127.652 319.789 127.948L320.761 128.452C320.897 128.148 321.105 127.9 321.385 127.708C321.665 127.516 321.993 127.42 322.369 127.42C322.793 127.42 323.133 127.532 323.389 127.756C323.653 127.972 323.785 128.256 323.785 128.608V128.908L321.577 129.268C320.849 129.388 320.313 129.632 319.969 130C319.633 130.36 319.465 130.796 319.465 131.308C319.465 131.852 319.665 132.296 320.065 132.64C320.473 132.976 320.993 133.144 321.625 133.144ZM320.641 131.272C320.641 130.992 320.733 130.756 320.917 130.564C321.109 130.372 321.413 130.24 321.829 130.168L323.785 129.844V130.252C323.785 130.612 323.701 130.94 323.533 131.236C323.365 131.532 323.129 131.768 322.825 131.944C322.521 132.112 322.165 132.196 321.757 132.196C321.437 132.196 321.169 132.108 320.953 131.932C320.745 131.756 320.641 131.536 320.641 131.272ZM326.632 125.5H327.748V124.06H326.632V125.5ZM326.632 133H327.748V126.532H326.632V133ZM329.479 133H330.595V123.916H329.479V133ZM332.675 135.64C333.099 135.64 333.459 135.556 333.755 135.388C334.059 135.22 334.315 134.992 334.523 134.704C334.739 134.424 334.915 134.112 335.051 133.768L337.967 126.532H336.731L334.775 131.584L332.807 126.532H331.595L334.163 133.012L333.971 133.48C333.795 133.88 333.607 134.164 333.407 134.332C333.215 134.5 332.931 134.584 332.555 134.584C332.427 134.584 332.295 134.572 332.159 134.548C332.031 134.532 331.923 134.516 331.835 134.5V135.496C331.963 135.552 332.099 135.588 332.243 135.604C332.387 135.628 332.531 135.64 332.675 135.64ZM345.282 133.144C345.898 133.144 346.45 133.036 346.938 132.82C347.434 132.604 347.85 132.324 348.186 131.98C348.53 131.636 348.774 131.268 348.918 130.876L347.838 130.384C347.63 130.88 347.306 131.284 346.866 131.596C346.426 131.9 345.898 132.052 345.282 132.052C344.658 132.052 344.102 131.904 343.614 131.608C343.134 131.312 342.758 130.9 342.486 130.372C342.214 129.844 342.078 129.232 342.078 128.536C342.078 127.832 342.214 127.216 342.486 126.688C342.758 126.16 343.134 125.748 343.614 125.452C344.102 125.156 344.658 125.008 345.282 125.008C345.898 125.008 346.426 125.164 346.866 125.476C347.306 125.78 347.63 126.18 347.838 126.676L348.918 126.184C348.774 125.792 348.53 125.424 348.186 125.08C347.85 124.736 347.434 124.456 346.938 124.24C346.45 124.024 345.898 123.916 345.282 123.916C344.65 123.916 344.066 124.032 343.53 124.264C343.002 124.488 342.538 124.808 342.138 125.224C341.746 125.64 341.442 126.128 341.226 126.688C341.01 127.248 340.902 127.864 340.902 128.536C340.902 129.2 341.01 129.816 341.226 130.384C341.442 130.944 341.746 131.432 342.138 131.848C342.538 132.256 343.002 132.576 343.53 132.808C344.066 133.032 344.65 133.144 345.282 133.144ZM353.34 133.144C353.948 133.144 354.504 133 355.008 132.712C355.512 132.424 355.912 132.024 356.208 131.512C356.512 131 356.664 130.416 356.664 129.76C356.664 129.112 356.516 128.536 356.22 128.032C355.932 127.52 355.536 127.12 355.032 126.832C354.528 126.536 353.964 126.388 353.34 126.388C352.708 126.388 352.14 126.536 351.636 126.832C351.132 127.12 350.732 127.52 350.436 128.032C350.148 128.536 350.004 129.112 350.004 129.76C350.004 130.408 350.152 130.988 350.448 131.5C350.744 132.012 351.144 132.416 351.648 132.712C352.152 133 352.716 133.144 353.34 133.144ZM353.34 132.064C352.932 132.064 352.564 131.964 352.236 131.764C351.916 131.564 351.66 131.292 351.468 130.948C351.276 130.596 351.18 130.2 351.18 129.76C351.18 129.32 351.276 128.928 351.468 128.584C351.66 128.24 351.916 127.968 352.236 127.768C352.564 127.568 352.932 127.468 353.34 127.468C353.74 127.468 354.1 127.568 354.42 127.768C354.748 127.968 355.004 128.24 355.188 128.584C355.38 128.928 355.476 129.32 355.476 129.76C355.476 130.2 355.38 130.596 355.188 130.948C355.004 131.292 354.748 131.564 354.42 131.764C354.1 131.964 353.74 132.064 353.34 132.064ZM358.12 133H359.236V129.172C359.236 128.644 359.38 128.228 359.668 127.924C359.956 127.62 360.316 127.468 360.748 127.468C361.188 127.468 361.544 127.62 361.816 127.924C362.096 128.22 362.236 128.636 362.236 129.172V133H363.364V129.172C363.364 128.644 363.504 128.228 363.784 127.924C364.072 127.62 364.436 127.468 364.876 127.468C365.308 127.468 365.664 127.62 365.944 127.924C366.224 128.22 366.364 128.636 366.364 129.172V133H367.492V128.812C367.492 128.348 367.384 127.936 367.168 127.576C366.952 127.208 366.66 126.92 366.292 126.712C365.932 126.496 365.528 126.388 365.08 126.388C364.648 126.388 364.252 126.488 363.892 126.688C363.54 126.888 363.26 127.18 363.052 127.564C362.86 127.204 362.58 126.92 362.212 126.712C361.852 126.496 361.452 126.388 361.012 126.388C360.628 126.388 360.276 126.472 359.956 126.64C359.644 126.8 359.396 127.032 359.212 127.336V126.532H358.12V133ZM369.077 135.4H370.193V132.1C370.441 132.436 370.757 132.696 371.141 132.88C371.533 133.056 371.961 133.144 372.425 133.144C373.041 133.144 373.589 132.996 374.069 132.7C374.557 132.404 374.941 132.004 375.221 131.5C375.501 130.988 375.641 130.412 375.641 129.772C375.641 129.124 375.501 128.548 375.221 128.044C374.941 127.532 374.561 127.128 374.081 126.832C373.601 126.536 373.053 126.388 372.437 126.388C371.949 126.388 371.509 126.484 371.117 126.676C370.733 126.86 370.417 127.116 370.169 127.444V126.532H369.077V135.4ZM372.341 132.064C371.941 132.064 371.577 131.964 371.249 131.764C370.921 131.564 370.661 131.292 370.469 130.948C370.285 130.596 370.193 130.204 370.193 129.772C370.193 129.332 370.285 128.94 370.469 128.596C370.661 128.252 370.921 127.98 371.249 127.78C371.577 127.572 371.941 127.468 372.341 127.468C372.749 127.468 373.109 127.568 373.421 127.768C373.741 127.968 373.993 128.244 374.177 128.596C374.361 128.94 374.453 129.332 374.453 129.772C374.453 130.204 374.361 130.596 374.177 130.948C373.993 131.292 373.741 131.564 373.421 131.764C373.109 131.964 372.749 132.064 372.341 132.064ZM377.104 133H378.22V123.916H377.104V133ZM382.928 133.144C383.592 133.144 384.168 132.988 384.656 132.676C385.144 132.364 385.488 131.984 385.688 131.536L384.752 131.056C384.568 131.368 384.328 131.624 384.032 131.824C383.736 132.024 383.372 132.124 382.94 132.124C382.58 132.124 382.244 132.044 381.932 131.884C381.628 131.716 381.376 131.48 381.176 131.176C380.984 130.872 380.88 130.512 380.864 130.096H385.808C385.848 129.88 385.868 129.68 385.868 129.496C385.868 128.96 385.748 128.456 385.508 127.984C385.268 127.512 384.92 127.128 384.464 126.832C384.016 126.536 383.472 126.388 382.832 126.388C382.232 126.388 381.696 126.532 381.224 126.82C380.752 127.108 380.376 127.508 380.096 128.02C379.824 128.524 379.688 129.1 379.688 129.748C379.688 130.396 379.828 130.976 380.108 131.488C380.388 132 380.772 132.404 381.26 132.7C381.748 132.996 382.304 133.144 382.928 133.144ZM382.832 127.384C383.16 127.384 383.46 127.46 383.732 127.612C384.004 127.756 384.224 127.96 384.392 128.224C384.56 128.488 384.648 128.792 384.656 129.136H380.888C380.968 128.592 381.192 128.164 381.56 127.852C381.928 127.54 382.352 127.384 382.832 127.384ZM389.951 133.072C390.039 133.072 390.147 133.068 390.275 133.06C390.403 133.052 390.519 133.036 390.623 133.012V132.016C390.551 132.024 390.475 132.032 390.395 132.04C390.315 132.048 390.243 132.052 390.179 132.052C389.787 132.052 389.507 131.956 389.339 131.764C389.179 131.564 389.099 131.3 389.099 130.972V127.6H390.551V126.532H389.099V125.044H387.983V125.572C387.983 125.868 387.899 126.104 387.731 126.28C387.563 126.448 387.335 126.532 387.047 126.532H386.807V127.6H387.983V131.008C387.983 131.664 388.151 132.172 388.487 132.532C388.831 132.892 389.319 133.072 389.951 133.072ZM394.881 133.144C395.545 133.144 396.121 132.988 396.609 132.676C397.097 132.364 397.441 131.984 397.641 131.536L396.705 131.056C396.521 131.368 396.281 131.624 395.985 131.824C395.689 132.024 395.325 132.124 394.893 132.124C394.533 132.124 394.197 132.044 393.885 131.884C393.581 131.716 393.329 131.48 393.129 131.176C392.937 130.872 392.833 130.512 392.817 130.096H397.761C397.801 129.88 397.821 129.68 397.821 129.496C397.821 128.96 397.701 128.456 397.461 127.984C397.221 127.512 396.873 127.128 396.417 126.832C395.969 126.536 395.425 126.388 394.785 126.388C394.185 126.388 393.649 126.532 393.177 126.82C392.705 127.108 392.329 127.508 392.049 128.02C391.777 128.524 391.641 129.1 391.641 129.748C391.641 130.396 391.781 130.976 392.061 131.488C392.341 132 392.725 132.404 393.213 132.7C393.701 132.996 394.257 133.144 394.881 133.144ZM394.785 127.384C395.113 127.384 395.413 127.46 395.685 127.612C395.957 127.756 396.177 127.96 396.345 128.224C396.513 128.488 396.601 128.792 396.609 129.136H392.841C392.921 128.592 393.145 128.164 393.513 127.852C393.881 127.54 394.305 127.384 394.785 127.384ZM402.216 133.144C402.696 133.144 403.132 133.052 403.524 132.868C403.924 132.676 404.244 132.404 404.484 132.052V133H405.576V123.916H404.448V127.396C404.2 127.076 403.884 126.828 403.5 126.652C403.116 126.476 402.688 126.388 402.216 126.388C401.608 126.388 401.06 126.536 400.572 126.832C400.092 127.128 399.712 127.532 399.432 128.044C399.152 128.548 399.012 129.124 399.012 129.772C399.012 130.412 399.152 130.988 399.432 131.5C399.712 132.004 400.092 132.404 400.572 132.7C401.06 132.996 401.608 133.144 402.216 133.144ZM402.312 132.064C401.904 132.064 401.54 131.964 401.22 131.764C400.9 131.564 400.648 131.292 400.464 130.948C400.28 130.596 400.188 130.204 400.188 129.772C400.188 129.332 400.28 128.94 400.464 128.596C400.648 128.244 400.9 127.968 401.22 127.768C401.548 127.568 401.912 127.468 402.312 127.468C402.72 127.468 403.084 127.572 403.404 127.78C403.724 127.98 403.976 128.252 404.16 128.596C404.352 128.94 404.448 129.332 404.448 129.772C404.448 130.204 404.352 130.596 404.16 130.948C403.976 131.292 403.724 131.564 403.404 131.764C403.084 131.964 402.72 132.064 402.312 132.064ZM411.07 133H412.258V125.14H414.646V124.06H408.646V125.14H411.07V133ZM414.932 133H416.048V129.148C416.048 128.628 416.188 128.228 416.468 127.948C416.748 127.66 417.116 127.516 417.572 127.516H418.136V126.46H417.74C417.34 126.46 416.996 126.532 416.708 126.676C416.42 126.812 416.192 127.02 416.024 127.3V126.532H414.932V133ZM421.024 133.144C421.496 133.144 421.92 133.056 422.296 132.88C422.672 132.696 422.976 132.456 423.208 132.16V133H424.3V128.608C424.3 128.168 424.192 127.784 423.976 127.456C423.768 127.12 423.476 126.86 423.1 126.676C422.724 126.484 422.288 126.388 421.792 126.388C421.408 126.388 421.04 126.456 420.688 126.592C420.336 126.728 420.028 126.916 419.764 127.156C419.5 127.388 419.308 127.652 419.188 127.948L420.16 128.452C420.296 128.148 420.504 127.9 420.784 127.708C421.064 127.516 421.392 127.42 421.768 127.42C422.192 127.42 422.532 127.532 422.788 127.756C423.052 127.972 423.184 128.256 423.184 128.608V128.908L420.976 129.268C420.248 129.388 419.712 129.632 419.368 130C419.032 130.36 418.864 130.796 418.864 131.308C418.864 131.852 419.064 132.296 419.464 132.64C419.872 132.976 420.392 133.144 421.024 133.144ZM420.04 131.272C420.04 130.992 420.132 130.756 420.316 130.564C420.508 130.372 420.812 130.24 421.228 130.168L423.184 129.844V130.252C423.184 130.612 423.1 130.94 422.932 131.236C422.764 131.532 422.528 131.768 422.224 131.944C421.92 132.112 421.564 132.196 421.156 132.196C420.836 132.196 420.568 132.108 420.352 131.932C420.144 131.756 420.04 131.536 420.04 131.272ZM426.03 133H427.146V129.172C427.146 128.644 427.294 128.228 427.59 127.924C427.886 127.62 428.262 127.468 428.718 127.468C429.174 127.468 429.546 127.62 429.834 127.924C430.122 128.22 430.266 128.636 430.266 129.172V133H431.394V128.812C431.394 128.348 431.286 127.936 431.07 127.576C430.862 127.208 430.574 126.92 430.206 126.712C429.846 126.496 429.434 126.388 428.97 126.388C428.57 126.388 428.21 126.472 427.89 126.64C427.57 126.8 427.314 127.028 427.122 127.324V126.532H426.03V133ZM435.307 133.144C435.771 133.144 436.179 133.064 436.531 132.904C436.883 132.744 437.159 132.524 437.359 132.244C437.559 131.956 437.659 131.628 437.659 131.26C437.659 130.812 437.511 130.428 437.215 130.108C436.919 129.788 436.511 129.552 435.991 129.4L434.935 129.088C434.807 129.048 434.675 129 434.539 128.944C434.403 128.88 434.287 128.792 434.191 128.68C434.095 128.56 434.047 128.408 434.047 128.224C434.047 127.968 434.143 127.76 434.335 127.6C434.535 127.44 434.795 127.36 435.115 127.36C435.467 127.36 435.787 127.46 436.075 127.66C436.371 127.852 436.591 128.116 436.735 128.452L437.647 128.032C437.455 127.512 437.131 127.108 436.675 126.82C436.227 126.532 435.719 126.388 435.151 126.388C434.727 126.388 434.343 126.468 433.999 126.628C433.663 126.788 433.395 127.012 433.195 127.3C433.003 127.58 432.907 127.912 432.907 128.296C432.907 128.712 433.039 129.08 433.303 129.4C433.575 129.712 434.003 129.948 434.587 130.108L435.559 130.384C435.695 130.416 435.835 130.468 435.979 130.54C436.131 130.604 436.259 130.696 436.363 130.816C436.475 130.928 436.531 131.08 436.531 131.272C436.531 131.544 436.415 131.764 436.183 131.932C435.951 132.1 435.659 132.184 435.307 132.184C434.915 132.184 434.559 132.076 434.239 131.86C433.919 131.636 433.667 131.328 433.483 130.936L432.595 131.368C432.795 131.912 433.135 132.344 433.615 132.664C434.095 132.984 434.659 133.144 435.307 133.144ZM441.016 133.144C441.488 133.144 441.912 133.056 442.288 132.88C442.664 132.696 442.968 132.456 443.2 132.16V133H444.292V128.608C444.292 128.168 444.184 127.784 443.968 127.456C443.76 127.12 443.468 126.86 443.092 126.676C442.716 126.484 442.28 126.388 441.784 126.388C441.4 126.388 441.032 126.456 440.68 126.592C440.328 126.728 440.02 126.916 439.756 127.156C439.492 127.388 439.3 127.652 439.18 127.948L440.152 128.452C440.288 128.148 440.496 127.9 440.776 127.708C441.056 127.516 441.384 127.42 441.76 127.42C442.184 127.42 442.524 127.532 442.78 127.756C443.044 127.972 443.176 128.256 443.176 128.608V128.908L440.968 129.268C440.24 129.388 439.704 129.632 439.36 130C439.024 130.36 438.856 130.796 438.856 131.308C438.856 131.852 439.056 132.296 439.456 132.64C439.864 132.976 440.384 133.144 441.016 133.144ZM440.032 131.272C440.032 130.992 440.124 130.756 440.308 130.564C440.5 130.372 440.804 130.24 441.22 130.168L443.176 129.844V130.252C443.176 130.612 443.092 130.94 442.924 131.236C442.756 131.532 442.52 131.768 442.216 131.944C441.912 132.112 441.556 132.196 441.148 132.196C440.828 132.196 440.56 132.108 440.344 131.932C440.136 131.756 440.032 131.536 440.032 131.272ZM449.022 133.144C449.446 133.144 449.842 133.068 450.21 132.916C450.586 132.764 450.91 132.556 451.182 132.292C451.454 132.028 451.658 131.732 451.794 131.404L450.798 130.9C450.646 131.252 450.414 131.536 450.102 131.752C449.798 131.96 449.438 132.064 449.022 132.064C448.63 132.064 448.274 131.964 447.954 131.764C447.642 131.564 447.394 131.292 447.21 130.948C447.026 130.596 446.934 130.204 446.934 129.772C446.934 129.324 447.026 128.928 447.21 128.584C447.394 128.24 447.642 127.968 447.954 127.768C448.274 127.568 448.63 127.468 449.022 127.468C449.43 127.468 449.79 127.576 450.102 127.792C450.414 128 450.646 128.272 450.798 128.608L451.794 128.128C451.658 127.792 451.45 127.492 451.17 127.228C450.898 126.964 450.578 126.76 450.21 126.616C449.842 126.464 449.446 126.388 449.022 126.388C448.39 126.388 447.826 126.536 447.33 126.832C446.842 127.12 446.458 127.52 446.178 128.032C445.898 128.536 445.758 129.112 445.758 129.76C445.758 130.4 445.898 130.976 446.178 131.488C446.458 132 446.842 132.404 447.33 132.7C447.826 132.996 448.39 133.144 449.022 133.144ZM455.881 133.072C455.969 133.072 456.077 133.068 456.205 133.06C456.333 133.052 456.449 133.036 456.553 133.012V132.016C456.481 132.024 456.405 132.032 456.325 132.04C456.245 132.048 456.173 132.052 456.109 132.052C455.717 132.052 455.437 131.956 455.269 131.764C455.109 131.564 455.029 131.3 455.029 130.972V127.6H456.481V126.532H455.029V125.044H453.913V125.572C453.913 125.868 453.829 126.104 453.661 126.28C453.493 126.448 453.265 126.532 452.977 126.532H452.737V127.6H453.913V131.008C453.913 131.664 454.081 132.172 454.417 132.532C454.761 132.892 455.249 133.072 455.881 133.072ZM458.01 125.5H459.126V124.06H458.01V125.5ZM458.01 133H459.126V126.532H458.01V133ZM463.93 133.144C464.538 133.144 465.094 133 465.598 132.712C466.102 132.424 466.502 132.024 466.798 131.512C467.102 131 467.254 130.416 467.254 129.76C467.254 129.112 467.106 128.536 466.81 128.032C466.522 127.52 466.126 127.12 465.622 126.832C465.118 126.536 464.554 126.388 463.93 126.388C463.298 126.388 462.73 126.536 462.226 126.832C461.722 127.12 461.322 127.52 461.026 128.032C460.738 128.536 460.594 129.112 460.594 129.76C460.594 130.408 460.742 130.988 461.038 131.5C461.334 132.012 461.734 132.416 462.238 132.712C462.742 133 463.306 133.144 463.93 133.144ZM463.93 132.064C463.522 132.064 463.154 131.964 462.826 131.764C462.506 131.564 462.25 131.292 462.058 130.948C461.866 130.596 461.77 130.2 461.77 129.76C461.77 129.32 461.866 128.928 462.058 128.584C462.25 128.24 462.506 127.968 462.826 127.768C463.154 127.568 463.522 127.468 463.93 127.468C464.33 127.468 464.69 127.568 465.01 127.768C465.338 127.968 465.594 128.24 465.778 128.584C465.97 128.928 466.066 129.32 466.066 129.76C466.066 130.2 465.97 130.596 465.778 130.948C465.594 131.292 465.338 131.564 465.01 131.764C464.69 131.964 464.33 132.064 463.93 132.064ZM468.71 133H469.826V129.172C469.826 128.644 469.974 128.228 470.27 127.924C470.566 127.62 470.942 127.468 471.398 127.468C471.854 127.468 472.226 127.62 472.514 127.924C472.802 128.22 472.946 128.636 472.946 129.172V133H474.074V128.812C474.074 128.348 473.966 127.936 473.75 127.576C473.542 127.208 473.254 126.92 472.886 126.712C472.526 126.496 472.114 126.388 471.65 126.388C471.25 126.388 470.89 126.472 470.57 126.64C470.25 126.8 469.994 127.028 469.802 127.324V126.532H468.71V133ZM477.987 133.144C478.451 133.144 478.859 133.064 479.211 132.904C479.563 132.744 479.839 132.524 480.039 132.244C480.239 131.956 480.339 131.628 480.339 131.26C480.339 130.812 480.191 130.428 479.895 130.108C479.599 129.788 479.191 129.552 478.671 129.4L477.615 129.088C477.487 129.048 477.355 129 477.219 128.944C477.083 128.88 476.967 128.792 476.871 128.68C476.775 128.56 476.727 128.408 476.727 128.224C476.727 127.968 476.823 127.76 477.015 127.6C477.215 127.44 477.475 127.36 477.795 127.36C478.147 127.36 478.467 127.46 478.755 127.66C479.051 127.852 479.271 128.116 479.415 128.452L480.327 128.032C480.135 127.512 479.811 127.108 479.355 126.82C478.907 126.532 478.399 126.388 477.831 126.388C477.407 126.388 477.023 126.468 476.679 126.628C476.343 126.788 476.075 127.012 475.875 127.3C475.683 127.58 475.587 127.912 475.587 128.296C475.587 128.712 475.719 129.08 475.983 129.4C476.255 129.712 476.683 129.948 477.267 130.108L478.239 130.384C478.375 130.416 478.515 130.468 478.659 130.54C478.811 130.604 478.939 130.696 479.043 130.816C479.155 130.928 479.211 131.08 479.211 131.272C479.211 131.544 479.095 131.764 478.863 131.932C478.631 132.1 478.339 132.184 477.987 132.184C477.595 132.184 477.239 132.076 476.919 131.86C476.599 131.636 476.347 131.328 476.163 130.936L475.275 131.368C475.475 131.912 475.815 132.344 476.295 132.664C476.775 132.984 477.339 133.144 477.987 133.144Z" fill="#6C727F"/>
<defs>
<clipPath id="clip0_601_2264">
<rect width="32" height="32" fill="white" transform="translate(44 16)"/>
</clipPath>
<clipPath id="clip1_601_2264">
<rect width="16" height="16" fill="white" transform="translate(407.5 44)"/>
</clipPath>
</defs>
</svg>
